<svg id="bc50fa8e-27d9-4d5d-ba63-cdf3f4662ea8" data-name="Layer 1" xmlns="http://www.w3.org/2000/svg" viewBox="0 0 197 194"><defs><style>.ab4238ec-bebb-4c8c-8ba6-170867541973{fill:red;stroke:#fff;stroke-miterlimit:10;}</style></defs><path class="ab4238ec-bebb-4c8c-8ba6-170867541973" d="M96.88,54.11c3.92.9,7-4.87,16.6-14.72,4.87-5.09,9.49-9.84,16.61-14.71,8.89-6.22,10.08-4.64,16.6-10.19,2.49-2.15,5.57-5.09,10.67-6.79a25.94,25.94,0,0,1,7.12-1.13,23.11,23.11,0,0,1,7.11,1.13A19.93,19.93,0,0,1,176.34,10c.59.45,2.13,1.47,5.93,6.79,1.18,1.58,1.3,1.92,2.37,3.39,3.68,5.21,4.51,5.21,7.11,9.06a39.7,39.7,0,0,1,4.75,9,25.43,25.43,0,0,1,1.18,4.53c.48,2.94,0,3.73,0,7.92,0,4.76.72,5.21,0,6.79-1.3,3-4.74,4.08-5.93,4.53C178.47,66.9,139.57,91.57,142,99.38a18.46,18.46,0,0,0,1.18,2.26,17.76,17.76,0,0,0,5.93,5.66c3.32,2.26,2.73,3.62,8.3,11.32,3.44,4.75,3.2,3.62,8.3,10.18a158.49,158.49,0,0,1,9.49,13.59c2.85,4.64,4.27,6.9,4.75,9.05,1.3,6.23-1.43,11.54-2.38,13.58a28.92,28.92,0,0,1-5.93,7.92c-4.5,4.76-6.52,5-16.6,12.45-5.57,4.19-5.93,4.87-8.3,5.66-6.05,2.15-11.86.57-14.23,0a22.32,22.32,0,0,1-9.49-4.52c-3.08-2.61-3.44-4.64-5.93-9.06C111,167,103.4,162.31,99.25,156c-1.06-1.59-2.49-2.94-3.55-4.53-.72-1.13-1.31-2.15-2.38-2.26A2.94,2.94,0,0,0,91,150.31a51,51,0,0,0-7.11,7.92c-2.73,3.62-3.21,2.49-7.12,6.79s-3.08,5-7.11,10.19c-3.68,4.64-3.92,3.62-9.49,10.18-.36.34-3.2,3.74-7.12,7.93a17.1,17.1,0,0,1-5.93,4.52A19,19,0,0,1,42.33,199c-4.63.34-8.66-2.83-20.16-12.45-8-6.68-9.13-7.93-10.67-10.19A35.21,35.21,0,0,1,6.75,165a32.14,32.14,0,0,1-1.18-10.18,27.17,27.17,0,0,1,1.18-6.79c1.66-4.87,4.15-6.12,10.68-13.59,5.93-6.9,4.5-6.67,8.3-10.18,4.15-3.85,6.52-4.76,9.48-9.06,1.55-2.26,1.55-2.83,3.56-5.66,2.61-3.5,3.92-5.31,5.93-6.79,1.42-1,2.37-1.47,2.37-2.26,0-1.24-2.37-1.47-4.74-3.4-1.78-1.47-2.37-2.71-3.56-4.52-2.49-3.74-4.62-4.53-8.3-7.92-3.91-3.63-3-4.08-8.3-10.19-6.4-7.36-8.06-7.24-14.23-14.71C5.69,56.94,3.43,54,3.2,54.11s1.06,2.37,1.18,2.26S2.13,53,2,48.45c-.12-3.06,1-3.4,1.19-7.92.11-3.51-.48-3.85,0-5.66.71-3.06,3.2-4.64,5.92-6.79,4.75-3.74,8.66-8.38,13.05-12.45,6.64-6.23,7.35-7,9.49-7.93a21.5,21.5,0,0,1,13-1.13c3.8,1,6.41,3.28,11.86,7.92,3,2.61,4.39,4.08,8.3,7.93,5,4.86,8.78,8.37,11.86,11.31,11.86,11.1,12.57,10.64,15.42,14.72C94.75,52.18,95,53.65,96.88,54.11Z" transform="translate(-1.5 -5.5)"/></svg>