<svg id="ab1396bf-2842-478d-b848-c42e7577608f" data-name="Layer 1" xmlns="http://www.w3.org/2000/svg" viewBox="0 0 199.91 186.89"><defs><style>.f0783a99-d0c6-487a-8fac-2befe33fc97b{fill:#00d023;stroke:#fff;stroke-miterlimit:10;}</style></defs><path class="f0783a99-d0c6-487a-8fac-2befe33fc97b" d="M10.55,105.32a7.57,7.57,0,0,0,2.09,0,8.07,8.07,0,0,0,5.22-3.14c1.27-1.74.69-2.92,1.05-7.31.23-2.92.47-2.25,2.09-11.5,1-5.54.69-4.69,1-6.26a54.9,54.9,0,0,1,5.23-13.59,88.72,88.72,0,0,1,6.26-10.45A82.9,82.9,0,0,1,49.21,35.31,76.71,76.71,0,0,1,65.93,24.86a76.44,76.44,0,0,1,54.33-4.18c13.76,4,22.66,10.65,29.25,15.68,9,6.85,20.68,17.88,18.81,20.89-.79,1.29-4,.86-10.45,0a32.53,32.53,0,0,1-8.36-2.09,18.81,18.81,0,0,1-4.17-2.09c-1.63-1.14-1.93-1.8-3.14-2.09A5.47,5.47,0,0,0,138,52a7.52,7.52,0,0,0-2.09,3.13,8.39,8.39,0,0,0-1,3.14,8,8,0,0,0,1,4.18A10.3,10.3,0,0,0,138,65.61c1.43,1.37,2.79,1.11,7.32,2.09,2.57.57,2.08.61,4.17,1,4.06.84,4.65.4,8.36,1,3.29.57,2.87.92,8.36,2.09,1.62.35,3.65.74,5.23,1.05,2.88.56,3.56.65,5.22,1,2.3.53,3.45.79,4.18,1,2.17.75,2.94,1.37,4.18,1,.57-.16.42-.29,2.09-1,1.38-.63,1.65-.61,2.09-1s.4-.67,1-2.09c.56-1.21.65-1.2,1.05-2.09a16.77,16.77,0,0,0,1-3.13,10.9,10.9,0,0,0,0-4.18c-.42-2.87.71-4.57,3.14-14.63,1-4.31,1.56-6.46,2.09-9.4.4-2.2.51-3.23,1-5.23a34.48,34.48,0,0,0,1-4.18,8.92,8.92,0,0,0,0-4.18,7.35,7.35,0,0,0-1-2.09c-.2-.27-2.61-3.48-6.27-3.13a7.06,7.06,0,0,0-4.18,2.09,9.16,9.16,0,0,0-2.09,3.13c-1,2.32-.85,4-1,6.27-.43,5.27-1.78,4.54-2.09,9.41a37.38,37.38,0,0,1-1,7.31c-.35,1.36-.58,1.95-1,2.09-1.16.32-2.81-2.47-5.22-6.27-2-3.2-4.84-7.46-6.27-9.4-2.2-3-5-5.17-10.45-9.41-8.06-6.24-12.08-9.36-16.72-11.49-1.13-.52-6.33-2.09-16.72-5.23C117.78,5.82,116.2,5.42,114,5A77.27,77.27,0,0,0,99.36,4c-6,0-10.67,0-16.72,1S72.76,7.6,65.93,10.23a104.6,104.6,0,0,0-17.77,8.36,80.39,80.39,0,0,0-10.45,7.32A82.56,82.56,0,0,0,24.13,40.54a87.25,87.25,0,0,0-11.49,18.8C11.55,61.81,10.17,66.22,7.41,75A82.1,82.1,0,0,0,4.28,88.6a36,36,0,0,0,0,8.36,17.66,17.66,0,0,0,1,4.18,7.66,7.66,0,0,0,1,2.09A6.33,6.33,0,0,0,10.55,105.32Z" transform="translate(-0.5 -3.46)"/><path class="f0783a99-d0c6-487a-8fac-2befe33fc97b" d="M190.36,88.49a7.57,7.57,0,0,0-2.09,0A8.12,8.12,0,0,0,183,91.63c-1.26,1.74-.69,2.92-1,7.31-.23,2.92-.47,2.25-2.09,11.5-1,5.54-.69,4.69-1,6.27a55,55,0,0,1-5.22,13.58,89.24,89.24,0,0,1-6.27,10.45A82.8,82.8,0,0,1,151.7,158.5,77.26,77.26,0,0,1,135,169a78.78,78.78,0,0,1-31.35,7.31,77.85,77.85,0,0,1-23-3.13c-13.76-4-22.67-10.65-29.26-15.67-9-6.86-20.68-17.89-18.81-20.9.8-1.29,4-.86,10.45,0a32.84,32.84,0,0,1,8.36,2.09,19.13,19.13,0,0,1,4.18,2.09c1.63,1.14,1.92,1.81,3.14,2.09a5.42,5.42,0,0,0,4.17-1.05A7.43,7.43,0,0,0,65,138.65a8.25,8.25,0,0,0,1-3.14,8,8,0,0,0-1-4.18,10.24,10.24,0,0,0-2.09-3.13c-1.43-1.37-2.79-1.11-7.31-2.09-2.57-.56-2.09-.61-4.18-1-4-.84-4.65-.4-8.36-1-3.29-.56-2.86-.92-8.36-2.09-1.62-.34-3.64-.74-5.22-1-2.89-.57-3.56-.66-5.23-1-2.29-.53-3.44-.79-4.17-1-2.18-.76-2.94-1.38-4.18-1-.58.16-.42.29-2.09,1-1.38.62-1.66.6-2.09,1s-.4.67-1,2.09c-.55,1.21-.65,1.2-1,2.09a15.77,15.77,0,0,0-1,3.13,11.1,11.1,0,0,0,0,4.18C9,134.2,7.84,135.9,5.42,146c-1,4.31-1.56,6.46-2.09,9.41-.4,2.19-.51,3.22-1.05,5.22a34.5,34.5,0,0,0-1,4.18,8.78,8.78,0,0,0,0,4.18,7,7,0,0,0,1,2.09c.2.27,2.61,3.48,6.27,3.13a7,7,0,0,0,4.18-2.09A8.87,8.87,0,0,0,14.82,169c1-2.32.86-4,1-6.27.42-5.27,1.77-4.53,2.09-9.4A36.56,36.56,0,0,1,19,146c.34-1.36.57-2,1.05-2.09,1.15-.32,2.81,2.47,5.22,6.27,2,3.2,4.84,7.46,6.27,9.41,2.19,3,5,5.16,10.45,9.4,8,6.24,12.08,9.36,16.72,11.49,1.12.53,6.33,2.09,16.71,5.23,7.7,2.32,9.28,2.72,11.5,3.13a76.41,76.41,0,0,0,14.62,1c6,0,10.67,0,16.72-1s9.89-2.59,16.72-5.22a103.43,103.43,0,0,0,17.76-8.36,80.39,80.39,0,0,0,10.45-7.32,83,83,0,0,0,13.59-14.62,87.62,87.62,0,0,0,11.49-18.81c1.09-2.47,2.46-6.88,5.22-15.67a83.08,83.08,0,0,0,3.14-13.59,36.62,36.62,0,0,0,0-8.36,18.41,18.41,0,0,0-1-4.18,7.39,7.39,0,0,0-1-2.09A6.35,6.35,0,0,0,190.36,88.49Z" transform="translate(-0.5 -3.46)"/></svg>